<?xml version="1.0" encoding="utf-8"?>
<!-- Generator: Adobe Illustrator 15.1.0, SVG Export Plug-In . SVG Version: 6.00 Build 0)  -->
<!DOCTYPE svg PUBLIC "-//W3C//DTD SVG 1.1//EN" "http://www.w3.org/Graphics/SVG/1.1/DTD/svg11.dtd">
<svg version="1.1" id="Laag_1" xmlns="http://www.w3.org/2000/svg" xmlns:xlink="http://www.w3.org/1999/xlink" x="0px" y="0px"
	 width="16.042px" height="9.333px" viewBox="0 0 16.042 9.333" enable-background="new 0 0 16.042 9.333" xml:space="preserve">
<g>
	<path display="none" fill="#A8A6B0" d="M16.33,0.205l-0.146-0.252l-7.951,4.59L0.479,0.067L0.064,0.079v9.265h0.438l7.732-4.464
		l7.951,4.59l0.146-0.252L8.525,4.711L16.33,0.205z M0.356,9.092V0.331l7.586,4.38L0.356,9.092z"/>
	<path fill="#A8A6B0" d="M0.046,0.079v9.265h0.438l7.584-4.38v4.412H8.36V4.962l7.584,4.389l0.16-0.007V9.101L8.506,4.711
		l7.575-4.379l0.022-0.253l-0.182,0.003L8.36,4.46V0.036H8.068v4.423L0.461,0.067L0.046,0.079z M0.338,0.331l7.586,4.38l-7.586,4.38
		V0.331z"/>
</g>
</svg>
